<?xml version="1.0" encoding="utf-8"?>
<!-- Generator: Adobe Illustrator 15.0.0, SVG Export Plug-In  -->
<!DOCTYPE svg PUBLIC "-//W3C//DTD SVG 1.1//EN" "http://www.w3.org/Graphics/SVG/1.1/DTD/svg11.dtd" [
	<!ENTITY ns_flows "http://ns.adobe.com/Flows/1.0/">
]>
<svg version="1.1"
	 xmlns="http://www.w3.org/2000/svg" xmlns:xlink="http://www.w3.org/1999/xlink" xmlns:a="http://ns.adobe.com/AdobeSVGViewerExtensions/3.0/"
	 x="0px" y="0px" width="126px" height="66px" viewBox="0 -1.167 126 66" enable-background="new 0 -1.167 126 66"
	 xml:space="preserve">
<defs>
</defs>
<rect fill="#26B99A" width="126" height="58"/>
<rect y="59" fill="#26B99A" width="126" height="0.75"/>
<rect y="60.875" fill="#26B99A" width="126" height="0.75"/>
<rect y="62.75" fill="#26B99A" width="126" height="0.75"/>
<rect y="58" fill="#26B99A" width="0.75" height="5.125"/>
<rect x="125.25" y="57.313" fill="#26B99A" width="0.75" height="6.188"/>
<rect x="104.792" y="57.313" fill="#26B99A" width="0.75" height="6.188"/>
<rect x="81.125" y="57.313" fill="#26B99A" width="0.75" height="6.188"/>
<rect x="50.958" y="57.313" fill="#26B99A" width="0.75" height="6.188"/>
<rect x="21.625" y="56.656" fill="#26B99A" width="0.75" height="6.188"/>
<rect x="20" y="39.75" fill="#FFFFFF" width="103.75" height="15.5"/>
<rect x="20" y="46.167" fill="#1D967A" width="103.75" height="2.333"/>
<polygon fill="#1D967A" points="38.562,55.75 37.187,55.75 37.531,48.5 38.281,48.5 "/>
<polygon fill="#1D967A" points="60.296,55.75 58.921,55.75 59.265,48.5 60.015,48.5 "/>
<polygon fill="#1D967A" points="83.62,55.75 82.245,55.75 82.588,48.5 83.338,48.5 "/>
<polygon fill="#1D967A" points="105.854,55.75 104.479,55.75 104.823,48.5 105.573,48.5 "/>
<polygon fill="#1D967A" points="104.479,39.583 105.854,39.583 105.511,46.833 104.761,46.833 "/>
<polygon fill="#1D967A" points="82.745,39.583 84.12,39.583 83.776,46.833 83.026,46.833 "/>
<polygon fill="#1D967A" points="59.422,39.583 60.797,39.583 60.453,46.833 59.703,46.833 "/>
<polygon fill="#1D967A" points="37.187,39.583 38.562,39.583 38.218,46.833 37.468,46.833 "/>
<rect x="1.75" y="1.5" fill="#FFFFFF" width="122" height="36.167"/>
<rect x="1.75" y="40.25" fill="#1D967A" width="11.25" height="12.375"/>
</svg>
