<?xml version="1.0" encoding="utf-8"?>
<!-- Generator: Adobe Illustrator 15.0.0, SVG Export Plug-In  -->
<!DOCTYPE svg PUBLIC "-//W3C//DTD SVG 1.1//EN" "http://www.w3.org/Graphics/SVG/1.1/DTD/svg11.dtd" [
	<!ENTITY ns_flows "http://ns.adobe.com/Flows/1.0/">
]>
<svg version="1.1"
	 xmlns="http://www.w3.org/2000/svg" xmlns:xlink="http://www.w3.org/1999/xlink" xmlns:a="http://ns.adobe.com/AdobeSVGViewerExtensions/3.0/"
	 x="0px" y="0px" width="312px" height="310px" viewBox="-50 -47.147 312 310" enable-background="new -50 -47.147 312 310"
	 xml:space="preserve">
<defs>
</defs>
<path fill="none" stroke="#FFFFFF" stroke-width="7" stroke-miterlimit="10" d="M213.354,38.038l-29.006,29.006l-8.025-8.025
	l29.006-29.006l-8.66-8.66l-29.006,29.006l-8.166-8.167l29.006-29.005l-8.236-8.237L151.26,33.955c0,0-11.893,12.844-12.743,24.007
	c-1.338,17.53,1.548,21.261,1.548,21.261l-34.156,32.51L71.728,78.89c0,0,6.6-25.186-11.511-43.297
	c-9.557-9.557-34.849-21.438-49.422-6.864C3.138,36.384-3.356,56.08,17.87,77.305c0,0,13.518,11.828,24.517,12.324
	c12.41,0.56,20.485-1.725,20.485-1.725l32.211,34.134l-63.084,60.042c0,0-1.76,8.801,1.971,12.531
	c3.731,3.732,12.18,2.042,12.18,2.042l60.049-62.837l58.917,62.433c0,0,5.35,0.846,7.18,0.423c1.832-0.423,5.193-2.41,5.193-2.41
	s3.01-3.011,2.588-7.34c-0.424-4.331-0.424-4.331-0.424-4.331l-62.592-60.142l32.158-33.651c0,0,25.133,5.562,39.918-9.223
	c14.783-14.784,32.877-32.877,32.877-32.877L213.354,38.038z"/>
<path fill="#FFFFFF" d="M163.249,186.497c0,0,3.592,1.619,5.527-0.315c1.936-1.938,0.775-5.984,0.775-5.984s7.496,4.329,2.762,9.063
	S163.249,186.497,163.249,186.497z"/>
<path fill="#FFFFFF" d="M34.168,75.159c0,0-16.686-20.065-6.055-30.696s27.527,3.873,27.527,3.873S34.238,17.921,17.658,34.501
	C1.078,51.081,30.647,75.58,34.168,75.159z"/>
<path fill="#FFFFFF" d="M175.76,74.929c0,0-9.717,1.689-17.566-6.161c-7.85-7.85-6.512-17.917-6.512-17.917
	s-11.336,16.263-1.584,26.014C159.848,86.616,175.76,74.929,175.76,74.929z"/>
<path fill="#FFFFFF" d="M48.807,185.583c0,0-3.08,2.587-5.967-0.299c-2.886-2.887-0.352-5.14-0.352-5.14s-7.427,4.4-3.239,8.59
	C43.438,192.923,49.106,188.558,48.807,185.583z"/>
</svg>
