<?xml version="1.0" encoding="utf-8"?>
<!-- Generator: Adobe Illustrator 15.0.0, SVG Export Plug-In  -->
<!DOCTYPE svg PUBLIC "-//W3C//DTD SVG 1.1//EN" "http://www.w3.org/Graphics/SVG/1.1/DTD/svg11.dtd" [
	<!ENTITY ns_flows "http://ns.adobe.com/Flows/1.0/">
]>
<svg version="1.1"
	 xmlns="http://www.w3.org/2000/svg" xmlns:xlink="http://www.w3.org/1999/xlink" xmlns:a="http://ns.adobe.com/AdobeSVGViewerExtensions/3.0/"
	 x="0px" y="0px" width="312px" height="310px" viewBox="-7.111 -6.304 312 310" enable-background="new -7.111 -6.304 312 310"
	 xml:space="preserve">
<defs>
</defs>
<circle fill="none" stroke="#FFFFFF" stroke-width="6" stroke-miterlimit="10" cx="149" cy="149" r="146"/>
<g>
	<path fill="#FFFFFF" d="M258.111,205.211c-7.124,14.302-17.188,27.156-29.348,37.609c-12.189,10.425-26.48,18.395-41.767,23.358
		c-15.28,5.001-31.582,6.843-47.616,5.531c-16.042-1.304-31.807-5.855-46.12-13.229c-14.297-7.404-27.129-17.632-37.474-29.962
		c-10.345-12.321-18.278-26.68-23.039-42.038c-4.795-15.34-6.561-31.608-5.111-47.582c1.493-15.965,6.154-31.611,13.699-45.696
		c-7.138,14.285-11.568,29.902-12.722,45.778c-1.241,15.861,0.687,31.938,5.6,47.032c4.928,15.083,12.695,29.243,22.964,41.331
		c10.236,12.11,22.908,22.121,37,29.361c14.057,7.31,29.556,11.85,45.355,13.193c15.801,1.38,31.845-0.472,46.999-5.18
		c15.154-4.726,29.382-12.457,41.603-22.644C240.416,231.947,250.591,219.298,258.111,205.211z"/>
</g>
<path fill="none" stroke="#FFFFFF" stroke-width="7" stroke-miterlimit="10" d="M256.242,78.882l-29.006,29.006l-8.025-8.025
	l29.006-29.006l-8.66-8.66l-29.006,29.006l-8.166-8.167l29.006-29.005l-8.236-8.237l-29.006,29.005c0,0-11.893,12.844-12.743,24.007
	c-1.338,17.53,1.548,21.261,1.548,21.261l-34.156,32.51l-34.182-32.844c0,0,6.6-25.186-11.511-43.297
	c-9.557-9.557-34.849-21.438-49.422-6.864c-7.656,7.656-14.151,27.352,7.075,48.577c0,0,13.518,11.828,24.517,12.324
	c12.41,0.56,20.485-1.725,20.485-1.725l32.211,34.134l-63.084,60.042c0,0-1.76,8.801,1.971,12.531
	c3.731,3.732,12.18,2.042,12.18,2.042l60.049-62.837l58.917,62.433c0,0,5.35,0.846,7.18,0.423c1.832-0.423,5.193-2.41,5.193-2.41
	s3.01-3.011,2.588-7.34c-0.424-4.331-0.424-4.331-0.424-4.331l-62.592-60.142l32.158-33.651c0,0,25.133,5.562,39.918-9.223
	c14.783-14.784,32.877-32.877,32.877-32.877L256.242,78.882z"/>
<path fill="#FFFFFF" d="M206.137,227.34c0,0,3.592,1.619,5.527-0.315c1.936-1.938,0.775-5.984,0.775-5.984s7.496,4.329,2.762,9.063
	S206.137,227.34,206.137,227.34z"/>
<path fill="#FFFFFF" d="M77.056,116.002c0,0-16.686-20.065-6.055-30.696s27.527,3.873,27.527,3.873S77.126,58.765,60.546,75.345
	C43.966,91.925,73.535,116.424,77.056,116.002z"/>
<path fill="#FFFFFF" d="M218.648,115.773c0,0-9.717,1.689-17.566-6.161c-7.85-7.85-6.512-17.917-6.512-17.917
	s-11.336,16.263-1.584,26.014C202.736,127.459,218.648,115.773,218.648,115.773z"/>
<path fill="#FFFFFF" d="M91.695,226.427c0,0-3.08,2.587-5.967-0.299c-2.886-2.887-0.352-5.14-0.352-5.14s-7.427,4.4-3.239,8.59
	C86.327,233.767,91.994,229.402,91.695,226.427z"/>
</svg>
